<svg xmlns="http://www.w3.org/2000/svg" viewBox="0 0 24 24" fill="none" stroke="white" stroke-width="1.8" stroke-linecap="round" stroke-linejoin="round">
  <path d="M12 15.5a3.5 3.5 0 1 0 0-7 3.5 3.5 0 0 0 0 7z"/>
  <path d="M19.4 15a1.65 1.65 0 0 0 .33 1.82l.06.06a2 2 0 1 1-2.83 2.83l-.06-.06a1.65 1.65 0 0 0-1.82-.33 1.65 1.65 0 0 0-1 1.51V21a2 2 0 1 1-4 0v-.09a1.65 1.65 0 0 0-1-1.51 1.65 1.65 0 0 0-1.82.33l-.06.06A2 2 0 1 1 2.47 17.35l.06-.06a1.65 1.65 0 0 0 .33-1.82 1.65 1.65 0 0 0-1.51-1H3a2 2 0 1 1 0-4h.09c.68 0 1.24-.4 1.51-1a1.65 1.65 0 0 0-.33-1.82l-.06-.06A2 2 0 1 1 6.69 2.47l.06.06c.48.48 1.02.82 1.82.33.68-.42 1.5-.42 2.18 0 .8.49 1.34.14 1.82-.33l.06-.06A2 2 0 1 1 17.35 6.69l-.06.06c-.42.68-.42 1.5 0 2.18.49.8.14 1.34.33 1.82z"/>
</svg>
